<svg fill="#000000" height="28px" width="28px" version="1.1" id="Icons" xmlns="http://www.w3.org/2000/svg" xmlns:xlink="http://www.w3.org/1999/xlink" viewBox="0 0 32 32" xml:space="preserve"><g id="SVGRepo_bgCarrier" stroke-width="0"></g><g id="SVGRepo_tracerCarrier" stroke-linecap="round" stroke-linejoin="round"></g><g id="SVGRepo_iconCarrier"> <path d="M28.8,10.2C27.9,4.5,23,1,16,1S4.1,4.5,3.2,10.2C2.5,15,3.6,20,6.4,23.9c1.4,2,3.1,3.6,5.1,4.8c1.4,0.9,3,1.3,4.5,1.3 s3.1-0.4,4.5-1.3c2-1.2,3.7-2.9,5.1-4.8C28.4,20,29.5,15,28.8,10.2z M13.8,21.6c-0.5,0.5-1.1,0.7-1.7,0.7c-1.2,0-2.5-0.6-3.7-1.8 c-0.8-0.8-1.4-1.8-1.7-2.7c-0.3-1.1-0.1-2.1,0.5-2.8c1.2-1.2,3.6-0.7,5.4,1.2C14.5,18,15,20.4,13.8,21.6z M25.3,17.8 c-0.3,0.9-0.9,1.9-1.7,2.7c-1.2,1.2-2.6,1.8-3.7,1.8c-0.7,0-1.3-0.2-1.7-0.7c-0.6-0.6-0.8-1.6-0.5-2.8c0.3-0.9,0.9-1.9,1.7-2.7 c1.9-1.9,4.2-2.4,5.4-1.2C25.5,15.6,25.6,16.7,25.3,17.8z"></path> </g></svg>